<svg width="134" height="46" viewBox="0 0 134 46" fill="none" xmlns="http://www.w3.org/2000/svg">
<path d="M8.67803 32V14.5H12.478L18.053 25.6L23.553 14.5H27.353V32H24.153V19.925L19.278 29.5H16.753L11.878 19.925V32H8.67803ZM32.2233 37.5L35.0983 31.175H34.3483L29.5233 19.6H32.9983L36.4733 28.325L40.0983 19.6H43.4983L35.6233 37.5H32.2233ZM51.6224 32V14.5H58.0974C59.4974 14.5 60.6557 14.7333 61.5724 15.2C62.489 15.6667 63.1724 16.3083 63.6224 17.125C64.0724 17.9417 64.2974 18.8583 64.2974 19.875C64.2974 20.8417 64.0807 21.7333 63.6474 22.55C63.214 23.35 62.539 24 61.6224 24.5C60.7057 24.9833 59.5307 25.225 58.0974 25.225H54.8224V32H51.6224ZM54.8224 22.625H57.8974C59.014 22.625 59.814 22.3833 60.2974 21.9C60.7974 21.4 61.0474 20.725 61.0474 19.875C61.0474 19.0083 60.7974 18.3333 60.2974 17.85C59.814 17.35 59.014 17.1 57.8974 17.1H54.8224V22.625ZM66.7329 32V19.6H69.5829L69.8829 21.925C70.3329 21.125 70.9412 20.4917 71.7079 20.025C72.4912 19.5417 73.4079 19.3 74.4579 19.3V22.675H73.5579C72.8579 22.675 72.2329 22.7833 71.6829 23C71.1329 23.2167 70.6996 23.5917 70.3829 24.125C70.0829 24.6583 69.9329 25.4 69.9329 26.35V32H66.7329ZM82.3753 32.3C81.1753 32.3 80.092 32.025 79.1253 31.475C78.1753 30.925 77.417 30.1667 76.8503 29.2C76.3003 28.2167 76.0253 27.0833 76.0253 25.8C76.0253 24.5167 76.3086 23.3917 76.8753 22.425C77.442 21.4417 78.2003 20.675 79.1503 20.125C80.117 19.575 81.2003 19.3 82.4003 19.3C83.5836 19.3 84.6503 19.575 85.6003 20.125C86.567 20.675 87.3253 21.4417 87.8753 22.425C88.442 23.3917 88.7253 24.5167 88.7253 25.8C88.7253 27.0833 88.442 28.2167 87.8753 29.2C87.3253 30.1667 86.567 30.925 85.6003 31.475C84.6336 32.025 83.5586 32.3 82.3753 32.3ZM82.3753 29.525C83.2086 29.525 83.9336 29.2167 84.5503 28.6C85.167 27.9667 85.4753 27.0333 85.4753 25.8C85.4753 24.5667 85.167 23.6417 84.5503 23.025C83.9336 22.3917 83.217 22.075 82.4003 22.075C81.5503 22.075 80.817 22.3917 80.2003 23.025C79.6003 23.6417 79.3003 24.5667 79.3003 25.8C79.3003 27.0333 79.6003 27.9667 80.2003 28.6C80.817 29.2167 81.542 29.525 82.3753 29.525ZM92.1614 32V22.275H90.4614V19.6H92.1614V18.15C92.1614 16.65 92.5364 15.5833 93.2864 14.95C94.0531 14.3167 95.0864 14 96.3864 14H97.7614V16.725H96.8864C96.3364 16.725 95.9448 16.8333 95.7114 17.05C95.4781 17.2667 95.3614 17.6333 95.3614 18.15V19.6H98.0364V22.275H95.3614V32H92.1614ZM102.296 17.675C101.712 17.675 101.229 17.5 100.846 17.15C100.479 16.8 100.296 16.3583 100.296 15.825C100.296 15.2917 100.479 14.8583 100.846 14.525C101.229 14.175 101.712 14 102.296 14C102.879 14 103.354 14.175 103.721 14.525C104.104 14.8583 104.296 15.2917 104.296 15.825C104.296 16.3583 104.104 16.8 103.721 17.15C103.354 17.5 102.879 17.675 102.296 17.675ZM100.696 32V19.6H103.896V32H100.696ZM107.236 32V14H110.436V32H107.236ZM119.731 32.3C118.481 32.3 117.372 32.0333 116.406 31.5C115.439 30.9667 114.681 30.2167 114.131 29.25C113.581 28.2833 113.306 27.1667 113.306 25.9C113.306 24.6167 113.572 23.475 114.106 22.475C114.656 21.475 115.406 20.7 116.356 20.15C117.322 19.5833 118.456 19.3 119.756 19.3C120.972 19.3 122.047 19.5667 122.981 20.1C123.914 20.6333 124.639 21.3667 125.156 22.3C125.689 23.2167 125.956 24.2417 125.956 25.375C125.956 25.5583 125.947 25.75 125.931 25.95C125.931 26.15 125.922 26.3583 125.906 26.575H116.481C116.547 27.5417 116.881 28.3 117.481 28.85C118.097 29.4 118.839 29.675 119.706 29.675C120.356 29.675 120.897 29.5333 121.331 29.25C121.781 28.95 122.114 28.5667 122.331 28.1H125.581C125.347 28.8833 124.956 29.6 124.406 30.25C123.872 30.8833 123.206 31.3833 122.406 31.75C121.622 32.1167 120.731 32.3 119.731 32.3ZM119.756 21.9C118.972 21.9 118.281 22.125 117.681 22.575C117.081 23.0083 116.697 23.675 116.531 24.575H122.706C122.656 23.7583 122.356 23.1083 121.806 22.625C121.256 22.1417 120.572 21.9 119.756 21.9Z" fill="#FFC300"/>
<line x1="7" y1="43" x2="130" y2="43" stroke="#FFC300" stroke-width="2" stroke-linecap="round"/>
</svg>
