<svg width="149" height="46" viewBox="0 0 149 46" fill="none" xmlns="http://www.w3.org/2000/svg">
<path d="M3.71465 32V14.5H7.51465L13.0896 25.6L18.5896 14.5H22.3896V32H19.1896V19.925L14.3146 29.5H11.7896L6.91465 19.925V32H3.71465ZM27.26 37.5L30.135 31.175H29.385L24.56 19.6H28.035L31.51 28.325L35.135 19.6H38.535L30.66 37.5H27.26ZM46.659 32V14.5H53.134C54.534 14.5 55.6923 14.7333 56.609 15.2C57.5257 15.6667 58.209 16.3083 58.659 17.125C59.109 17.9417 59.334 18.8583 59.334 19.875C59.334 20.8417 59.1173 21.7333 58.684 22.55C58.2507 23.35 57.5757 24 56.659 24.5C55.7423 24.9833 54.5673 25.225 53.134 25.225H49.859V32H46.659ZM49.859 22.625H52.934C54.0507 22.625 54.8507 22.3833 55.334 21.9C55.834 21.4 56.084 20.725 56.084 19.875C56.084 19.0083 55.834 18.3333 55.334 17.85C54.8507 17.35 54.0507 17.1 52.934 17.1H49.859V22.625ZM61.7695 32V19.6H64.6195L64.9195 21.925C65.3695 21.125 65.9779 20.4917 66.7445 20.025C67.5279 19.5417 68.4445 19.3 69.4945 19.3V22.675H68.5945C67.8945 22.675 67.2695 22.7833 66.7195 23C66.1695 23.2167 65.7362 23.5917 65.4195 24.125C65.1195 24.6583 64.9695 25.4 64.9695 26.35V32H61.7695ZM77.4119 32.3C76.2119 32.3 75.1286 32.025 74.1619 31.475C73.2119 30.925 72.4536 30.1667 71.8869 29.2C71.3369 28.2167 71.0619 27.0833 71.0619 25.8C71.0619 24.5167 71.3452 23.3917 71.9119 22.425C72.4786 21.4417 73.2369 20.675 74.1869 20.125C75.1536 19.575 76.2369 19.3 77.4369 19.3C78.6202 19.3 79.6869 19.575 80.6369 20.125C81.6036 20.675 82.3619 21.4417 82.9119 22.425C83.4786 23.3917 83.7619 24.5167 83.7619 25.8C83.7619 27.0833 83.4786 28.2167 82.9119 29.2C82.3619 30.1667 81.6036 30.925 80.6369 31.475C79.6702 32.025 78.5952 32.3 77.4119 32.3ZM77.4119 29.525C78.2452 29.525 78.9702 29.2167 79.5869 28.6C80.2036 27.9667 80.5119 27.0333 80.5119 25.8C80.5119 24.5667 80.2036 23.6417 79.5869 23.025C78.9702 22.3917 78.2536 22.075 77.4369 22.075C76.5869 22.075 75.8536 22.3917 75.2369 23.025C74.6369 23.6417 74.3369 24.5667 74.3369 25.8C74.3369 27.0333 74.6369 27.9667 75.2369 28.6C75.8536 29.2167 76.5786 29.525 77.4119 29.525ZM91.6598 32C90.3598 32 89.3181 31.6833 88.5348 31.05C87.7514 30.4167 87.3598 29.2917 87.3598 27.675V22.275H85.2348V19.6H87.3598L87.7348 16.275H90.5598V19.6H93.9098V22.275H90.5598V27.7C90.5598 28.3 90.6848 28.7167 90.9348 28.95C91.2014 29.1667 91.6514 29.275 92.2848 29.275H93.8348V32H91.6598ZM97.2322 32V22.275H95.5322V19.6H97.2322V18.15C97.2322 16.65 97.6072 15.5833 98.3572 14.95C99.1239 14.3167 100.157 14 101.457 14H102.832V16.725H101.957C101.407 16.725 101.016 16.8333 100.782 17.05C100.549 17.2667 100.432 17.6333 100.432 18.15V19.6H103.107V22.275H100.432V32H97.2322ZM111.103 32.3C109.903 32.3 108.82 32.025 107.853 31.475C106.903 30.925 106.145 30.1667 105.578 29.2C105.028 28.2167 104.753 27.0833 104.753 25.8C104.753 24.5167 105.037 23.3917 105.603 22.425C106.17 21.4417 106.928 20.675 107.878 20.125C108.845 19.575 109.928 19.3 111.128 19.3C112.312 19.3 113.378 19.575 114.328 20.125C115.295 20.675 116.053 21.4417 116.603 22.425C117.17 23.3917 117.453 24.5167 117.453 25.8C117.453 27.0833 117.17 28.2167 116.603 29.2C116.053 30.1667 115.295 30.925 114.328 31.475C113.362 32.025 112.287 32.3 111.103 32.3ZM111.103 29.525C111.937 29.525 112.662 29.2167 113.278 28.6C113.895 27.9667 114.203 27.0333 114.203 25.8C114.203 24.5667 113.895 23.6417 113.278 23.025C112.662 22.3917 111.945 22.075 111.128 22.075C110.278 22.075 109.545 22.3917 108.928 23.025C108.328 23.6417 108.028 24.5667 108.028 25.8C108.028 27.0333 108.328 27.9667 108.928 28.6C109.545 29.2167 110.27 29.525 111.103 29.525ZM120.314 32V14H123.514V32H120.314ZM128.509 17.675C127.926 17.675 127.443 17.5 127.059 17.15C126.693 16.8 126.509 16.3583 126.509 15.825C126.509 15.2917 126.693 14.8583 127.059 14.525C127.443 14.175 127.926 14 128.509 14C129.093 14 129.568 14.175 129.934 14.525C130.318 14.8583 130.509 15.2917 130.509 15.825C130.509 16.3583 130.318 16.8 129.934 17.15C129.568 17.5 129.093 17.675 128.509 17.675ZM126.909 32V19.6H130.109V32H126.909ZM139.399 32.3C138.199 32.3 137.116 32.025 136.149 31.475C135.199 30.925 134.441 30.1667 133.874 29.2C133.324 28.2167 133.049 27.0833 133.049 25.8C133.049 24.5167 133.333 23.3917 133.899 22.425C134.466 21.4417 135.224 20.675 136.174 20.125C137.141 19.575 138.224 19.3 139.424 19.3C140.608 19.3 141.674 19.575 142.624 20.125C143.591 20.675 144.349 21.4417 144.899 22.425C145.466 23.3917 145.749 24.5167 145.749 25.8C145.749 27.0833 145.466 28.2167 144.899 29.2C144.349 30.1667 143.591 30.925 142.624 31.475C141.658 32.025 140.583 32.3 139.399 32.3ZM139.399 29.525C140.233 29.525 140.958 29.2167 141.574 28.6C142.191 27.9667 142.499 27.0333 142.499 25.8C142.499 24.5667 142.191 23.6417 141.574 23.025C140.958 22.3917 140.241 22.075 139.424 22.075C138.574 22.075 137.841 22.3917 137.224 23.025C136.624 23.6417 136.324 24.5667 136.324 25.8C136.324 27.0333 136.624 27.9667 137.224 28.6C137.841 29.2167 138.566 29.525 139.399 29.525Z" fill="#FFC300"/>
<line x1="1" y1="45" x2="148" y2="45" stroke="#FFC300" stroke-width="2" stroke-linecap="round"/>
</svg>
