<svg width="25" height="24" viewBox="0 0 25 24" fill="none" xmlns="http://www.w3.org/2000/svg">
<path d="M20.7195 10.9961H22.7195C22.7195 5.86607 18.8465 1.99707 13.7095 1.99707V3.99707C17.7715 3.99707 20.7195 6.94007 20.7195 10.9961Z" fill="white"/>
<path d="M13.719 7.99707C15.822 7.99707 16.719 8.89406 16.719 10.9971H18.719C18.719 7.77207 16.944 5.99707 13.719 5.99707V7.99707ZM17.141 13.4401C16.9489 13.2654 16.6964 13.1723 16.4368 13.1803C16.1773 13.1883 15.931 13.2969 15.75 13.4831L13.357 15.9441C12.781 15.8341 11.623 15.4731 10.431 14.2841C9.23903 13.0911 8.87803 11.9301 8.77103 11.3581L11.23 8.96407C11.4164 8.78319 11.5252 8.53689 11.5332 8.27727C11.5412 8.01766 11.4479 7.76511 11.273 7.57307L7.57803 3.51007C7.40307 3.31742 7.15991 3.20057 6.90018 3.18432C6.64046 3.16808 6.38463 3.25372 6.18703 3.42307L4.01703 5.28407C3.84414 5.45758 3.74095 5.68852 3.72703 5.93306C3.71203 6.18306 3.42603 12.1051 8.01803 16.6991C12.024 20.7041 17.042 20.9971 18.424 20.9971C18.626 20.9971 18.75 20.9911 18.783 20.9891C19.0275 20.9754 19.2584 20.8717 19.431 20.6981L21.291 18.5271C21.4605 18.3296 21.5463 18.0738 21.5303 17.8141C21.5142 17.5544 21.3975 17.3112 21.205 17.1361L17.141 13.4401Z" fill="white"/>
</svg>
